<svg width="72" height="72" viewBox="0 0 72 72" fill="none" xmlns="http://www.w3.org/2000/svg">
<circle cx="36" cy="36" r="35.75" stroke="#E31244" stroke-width="0.5"/>
<path fill-rule="evenodd" clip-rule="evenodd" d="M20.2502 36C20.2502 36.2983 20.3687 36.5845 20.5797 36.7955C20.7907 37.0064 21.0768 37.125 21.3752 37.125L47.9094 37.125L40.8287 44.2035C40.7241 44.3081 40.6411 44.4322 40.5845 44.5689C40.5279 44.7056 40.4988 44.852 40.4988 45C40.4988 45.1479 40.5279 45.2944 40.5845 45.431C40.6411 45.5677 40.7241 45.6919 40.8287 45.7965C40.9333 45.9011 41.0575 45.984 41.1941 46.0406C41.3308 46.0973 41.4773 46.1264 41.6252 46.1264C41.7731 46.1264 41.9196 46.0973 42.0562 46.0406C42.1929 45.984 42.3171 45.9011 42.4217 45.7965L51.4217 36.7965C51.5265 36.692 51.6096 36.5678 51.6663 36.4311C51.723 36.2945 51.7522 36.1479 51.7522 36C51.7522 35.852 51.723 35.7055 51.6663 35.5688C51.6096 35.4321 51.5265 35.308 51.4217 35.2035L42.4217 26.2035C42.3171 26.0989 42.1929 26.0159 42.0563 25.9593C41.9196 25.9027 41.7731 25.8735 41.6252 25.8735C41.4773 25.8735 41.3308 25.9027 41.1941 25.9593C41.0575 26.0159 40.9333 26.0989 40.8287 26.2035C40.7241 26.3081 40.6411 26.4322 40.5845 26.5689C40.5279 26.7056 40.4988 26.852 40.4988 27C40.4988 27.1479 40.5279 27.2944 40.5845 27.431C40.6411 27.5677 40.7241 27.6919 40.8287 27.7965L47.9094 34.875L21.3752 34.875C21.0768 34.875 20.7907 34.9935 20.5797 35.2045C20.3687 35.4154 20.2502 35.7016 20.2502 36Z" fill="#E31244"/>
</svg>
