<svg width="16" height="16" viewBox="0 0 16 16" fill="none" xmlns="http://www.w3.org/2000/svg">
<path fill-rule="evenodd" clip-rule="evenodd" d="M1.00008 7.99998C1.00008 8.13259 1.05276 8.25976 1.14653 8.35353C1.2403 8.4473 1.36747 8.49998 1.50008 8.49998L13.2931 8.49998L10.1461 11.646C10.0996 11.6925 10.0627 11.7477 10.0376 11.8084C10.0124 11.8691 9.99945 11.9342 9.99945 12C9.99945 12.0657 10.0124 12.1308 10.0376 12.1916C10.0627 12.2523 10.0996 12.3075 10.1461 12.354C10.1926 12.4005 10.2478 12.4373 10.3085 12.4625C10.3692 12.4877 10.4343 12.5006 10.5001 12.5006C10.5658 12.5006 10.6309 12.4877 10.6917 12.4625C10.7524 12.4373 10.8076 12.4005 10.8541 12.354L14.8541 8.35398C14.9006 8.30753 14.9376 8.25236 14.9628 8.19161C14.988 8.13087 15.001 8.06575 15.001 7.99998C15.001 7.93421 14.988 7.86909 14.9628 7.80835C14.9376 7.7476 14.9006 7.69242 14.8541 7.64598L10.8541 3.64598C10.8076 3.59949 10.7524 3.56261 10.6917 3.53746C10.6309 3.5123 10.5658 3.49935 10.5001 3.49935C10.4343 3.49935 10.3692 3.5123 10.3085 3.53746C10.2478 3.56261 10.1926 3.59949 10.1461 3.64598C10.0996 3.69247 10.0627 3.74766 10.0376 3.80839C10.0124 3.86913 9.99945 3.93424 9.99945 3.99998C9.99945 4.06572 10.0124 4.13082 10.0376 4.19156C10.0627 4.2523 10.0996 4.30749 10.1461 4.35398L13.2931 7.49998L1.50008 7.49998C1.36747 7.49998 1.2403 7.55266 1.14653 7.64642C1.05276 7.74019 1.00008 7.86737 1.00008 7.99998Z" fill="white"/>
</svg>
