<svg width="52" height="52" viewBox="0 0 52 52" fill="none" xmlns="http://www.w3.org/2000/svg">
<circle cx="26" cy="26.0001" r="25.75" stroke="#272D41" stroke-width="0.5"/>
<path fill-rule="evenodd" clip-rule="evenodd" d="M37.3747 26.0001C37.3747 26.2156 37.2891 26.4223 37.1368 26.5746C36.9844 26.727 36.7777 26.8126 36.5622 26.8126L17.3986 26.8126L22.5125 31.9249C22.588 32.0004 22.648 32.0901 22.6888 32.1888C22.7297 32.2875 22.7508 32.3933 22.7508 32.5001C22.7508 32.6069 22.7297 32.7127 22.6888 32.8114C22.648 32.9101 22.588 32.9998 22.5125 33.0754C22.437 33.1509 22.3473 33.2108 22.2486 33.2517C22.1499 33.2926 22.0441 33.3136 21.9372 33.3136C21.8304 33.3136 21.7246 33.2926 21.6259 33.2517C21.5272 33.2108 21.4375 33.1509 21.362 33.0754L14.862 26.5754C14.7863 26.4999 14.7263 26.4102 14.6853 26.3115C14.6444 26.2128 14.6233 26.107 14.6233 26.0001C14.6233 25.8932 14.6444 25.7874 14.6853 25.6887C14.7263 25.59 14.7863 25.5003 14.862 25.4249L21.362 18.9249C21.4375 18.8493 21.5272 18.7894 21.6259 18.7485C21.7246 18.7076 21.8304 18.6866 21.9372 18.6866C22.0441 18.6866 22.1499 18.7076 22.2486 18.7485C22.3473 18.7894 22.4369 18.8493 22.5125 18.9249C22.588 19.0004 22.648 19.0901 22.6888 19.1888C22.7297 19.2875 22.7508 19.3933 22.7508 19.5001C22.7508 19.6069 22.7297 19.7127 22.6888 19.8114C22.648 19.9101 22.588 19.9998 22.5125 20.0754L17.3986 25.1876L36.5622 25.1876C36.7777 25.1876 36.9844 25.2732 37.1368 25.4256C37.2891 25.578 37.3747 25.7846 37.3747 26.0001Z" fill="#272D41"/>
</svg>
