<svg width="14" height="10" viewBox="0 0 14 10" fill="none" xmlns="http://www.w3.org/2000/svg">
<path fill-rule="evenodd" clip-rule="evenodd" d="M8.33631e-05 4.99998C8.33515e-05 5.13259 0.0527614 5.25976 0.14653 5.35353C0.240298 5.4473 0.367475 5.49998 0.500083 5.49998L12.2931 5.49998L9.14608 8.64598C9.0996 8.69247 9.06272 8.74766 9.03756 8.80839C9.0124 8.86913 8.99945 8.93423 8.99945 8.99998C8.99945 9.06572 9.0124 9.13082 9.03756 9.19156C9.06272 9.2523 9.0996 9.30749 9.14608 9.35398C9.19257 9.40047 9.24776 9.43734 9.3085 9.4625C9.36924 9.48766 9.43434 9.50061 9.50008 9.50061C9.56583 9.50061 9.63093 9.48766 9.69167 9.4625C9.75241 9.43734 9.8076 9.40047 9.85408 9.35398L13.8541 5.35398C13.9006 5.30753 13.9376 5.25236 13.9628 5.19161C13.988 5.13087 14.001 5.06575 14.001 4.99998C14.001 4.93421 13.988 4.86909 13.9628 4.80835C13.9376 4.7476 13.9006 4.69242 13.8541 4.64598L9.85408 0.645979C9.8076 0.599491 9.75241 0.562614 9.69167 0.537455C9.63093 0.512296 9.56583 0.499347 9.50008 0.499347C9.43434 0.499347 9.36924 0.512296 9.3085 0.537455C9.24776 0.562614 9.19257 0.599491 9.14608 0.645979C9.0996 0.692466 9.06272 0.747655 9.03756 0.808395C9.0124 0.869134 8.99945 0.934235 8.99945 0.999979C8.99945 1.06572 9.0124 1.13082 9.03756 1.19156C9.06272 1.2523 9.0996 1.30749 9.14608 1.35398L12.2931 4.49998L0.500083 4.49998C0.367475 4.49998 0.240298 4.55266 0.14653 4.64642C0.0527615 4.74019 8.33747e-05 4.86737 8.33631e-05 4.99998Z" fill="#E31244"/>
</svg>
