<svg width="52" height="52" viewBox="0 0 52 52" fill="none" xmlns="http://www.w3.org/2000/svg">
<circle cx="26" cy="26" r="25.5" fill="#FFF4F4" stroke="white"/>
<path fill-rule="evenodd" clip-rule="evenodd" d="M24.32 17C19.46 20.12 17.1 23.34 17.1 28.72C17.42 28.62 17.7 28.62 17.98 28.62C20.52 28.62 22.98 30.34 22.98 33.44C22.98 36.66 20.92 38.66 17.98 38.66C14.18 38.66 12 35.62 12 30.16C12 22.56 15.5 17.1 22.04 13.32L24.32 17ZM38.32 17C33.46 20.12 31.1 23.34 31.1 28.72C31.42 28.62 31.7 28.62 31.98 28.62C34.52 28.62 36.98 30.34 36.98 33.44C36.98 36.66 34.92 38.66 31.98 38.66C28.2 38.66 26.02 35.62 26.02 30.16C26.02 22.56 29.52 17.1 36.06 13.32L38.34 17H38.32Z" fill="black"/>
</svg>
