<svg width="10" height="10" viewBox="0 0 16 16" fill="none" xmlns="http://www.w3.org/2000/svg">
<path d="M9.88969 5.3975L9.77338 5.1617L8.0004 1.56733C7.9997 1.56758 7.99929 1.56787 7.99917 1.56796C7.99917 1.56797 7.99917 1.56797 7.99916 1.56797C7.99915 1.56799 7.99914 1.56799 7.99915 1.56798L9.88969 5.3975ZM9.88969 5.3975L10.1499 5.43532M9.88969 5.3975L10.1499 5.43532M8.44835 1.3452C8.39991 1.24677 8.32023 1.16708 8.22179 1.11864L8.44835 1.3452ZM8.44835 1.3452L10.2218 4.94052L8.44835 1.3452ZM10.1499 5.43532L14.1155 6.01165L14.1155 6.01166L14.1161 6.01179L14.116 6.01268L14.1156 6.01309M10.1499 5.43532L1.88315 6.01182L1.88329 6.01216L1.88332 6.0122L4.75364 8.81063L4.94185 8.99413L4.89739 9.25321L4.21942 13.2039L7.76723 11.3386L7.99991 11.2162L8.23259 11.3386L11.7804 13.2039L11.1024 9.25321L11.058 8.99413L11.2462 8.81063L14.1156 6.01309M14.1156 6.01309L14.1159 6.01355L14.1159 6.01342L14.1156 6.01309ZM7.99876 1.56867L7.99989 1.56639L7.55147 1.3452L7.99869 1.56881L7.99876 1.56867ZM1.88156 6.01205L1.88169 6.01203L1.88201 6.01235L1.88156 6.01205ZM11.7809 13.2041C11.7809 13.2041 11.7809 13.2041 11.7809 13.2041C11.7811 13.204 11.7813 13.2039 11.7813 13.2039C11.7813 13.2039 11.7812 13.2039 11.7809 13.204C11.781 13.2037 11.781 13.2037 11.7809 13.204C11.7809 13.204 11.7809 13.204 11.7809 13.204C11.7808 13.204 11.7807 13.204 11.7807 13.204L11.7809 13.2041Z" fill="white" fill-opacity="0.46" stroke="#E31244"/>
</svg>
