<svg width="18" height="18" viewBox="0 0 18 18" fill="none" xmlns="http://www.w3.org/2000/svg">
<path d="M12.9921 15.3526C13.1011 15.4106 13.2277 15.4299 13.3489 15.4088C13.6548 15.3561 13.8605 15.0661 13.8077 14.7602L12.9921 15.3526ZM12.9921 15.3526L9.00011 13.2538L5.00812 15.3526M12.9921 15.3526H5.00812M5.00812 15.3526C4.91531 15.4016 4.81063 15.4236 4.70595 15.4161M5.00812 15.3526L4.70595 15.4161M4.70595 15.4161C4.60127 15.4087 4.50077 15.372 4.41586 15.3104M4.70595 15.4161L15.924 6.80936L12.6958 9.9567L12.5076 10.1402L12.552 10.3993L13.3149 14.8448L13.315 14.8452C13.3206 14.8777 13.299 14.9101 13.264 14.9161L13.2633 14.9162C13.2492 14.9187 13.2357 14.9159 13.227 14.9112L13.2248 14.91L9.23279 12.8112L9.00011 12.6889L8.76743 12.8112L4.77544 14.91L4.77467 14.9104C4.76448 14.9158 4.753 14.9182 4.74151 14.9174C4.73003 14.9166 4.719 14.9126 4.70968 14.9058L4.41586 15.3104M4.41586 15.3104L4.70968 14.9058C4.70037 14.899 4.69313 14.8898 4.6888 14.8791C4.68447 14.8685 4.68321 14.8568 4.68518 14.8454L4.68529 14.8448L5.44818 10.3993L5.49264 10.1402L5.30443 9.9567L2.07532 6.80845L2.07529 6.80842C2.06326 6.7967 2.05638 6.78067 2.05616 6.76388C2.05594 6.74738 2.06217 6.73145 2.07349 6.71948C2.08404 6.70899 2.09622 6.70337 2.10813 6.70167L2.10933 6.7015L6.57241 6.05287L6.83261 6.01505L6.94892 5.77925L8.94284 1.73694C8.94294 1.73674 8.94304 1.73653 8.94315 1.73633C8.9599 1.70365 8.99908 1.69233 9.02839 1.7068L9.02897 1.70708C9.04069 1.71285 9.05021 1.72237 9.05598 1.73409L9.05619 1.73452L11.0513 5.77925L11.1676 6.01505L11.4278 6.05287L15.8893 6.70127C15.8895 6.70129 15.8896 6.70131 15.8898 6.70133C15.9287 6.70736 15.9475 6.74085 15.9433 6.76854L15.9432 6.76854L15.9424 6.77407C15.9407 6.78616 15.9349 6.79855 15.9241 6.80921L2.03741 6.2067C1.91437 6.22427 1.80187 6.28228 1.71573 6.37017C1.6116 6.4772 1.55422 6.62119 1.5562 6.7705C1.55818 6.91981 1.61935 7.06223 1.72628 7.16646L4.95539 10.3147L4.19249 14.7602C4.1746 14.8636 4.18605 14.97 4.22553 15.0672C4.26501 15.1645 4.33094 15.2487 4.41586 15.3104ZM9.24972 1.25845C8.97199 1.12134 8.63449 1.2356 8.49562 1.51334L6.5005 5.55806L9.24972 1.25845ZM9.24972 1.25845C9.36047 1.31295 9.45012 1.40259 9.50461 1.51334L11.4997 5.55806L15.9628 6.2067L9.24972 1.25845Z" fill="white" fill-opacity="0.41" stroke="#E31244"/>
</svg>
