<svg width="10" height="10" viewBox="0 0 16 16" fill="none" xmlns="http://www.w3.org/2000/svg">
<path d="M9.88981 5.39757L9.7735 5.16177L8.00052 1.5674C7.99982 1.56765 7.99941 1.56794 7.99929 1.56803C7.99929 1.56803 7.99929 1.56803 7.99929 1.56804C7.99927 1.56805 7.99926 1.56806 7.99927 1.56805L9.88981 5.39757ZM9.88981 5.39757L10.15 5.43538L14.1156 6.01172L14.1891 5.51729L14.1177 6.00823L14.1173 6.01137C14.1174 6.0119 14.1176 6.01224 14.1177 6.01243C14.1178 6.01262 14.1178 6.01266 14.1178 6.01258L14.1173 6.01212L14.1171 6.01204L14.1163 6.01186M9.88981 5.39757L8.44847 1.34527M8.44847 1.34527L10.2219 4.94058L14.1891 5.51714C14.4625 5.55777 14.6532 5.81089 14.611 6.08433C14.5954 6.19371 14.5438 6.29371 14.4657 6.37027M8.44847 1.34527C8.40003 1.24683 8.32035 1.16714 8.22191 1.11871L8.44847 1.34527ZM14.4657 6.37027L14.1183 6.01394L14.1166 6.01226L14.1161 6.01274M14.4657 6.37027L14.1162 6.01365L14.116 6.01349M14.4657 6.37027L11.5954 9.16871L12.2735 13.1203C12.3204 13.3921 12.1375 13.65 11.8657 13.6968C11.7579 13.7156 11.6454 13.6984 11.5485 13.6468L8.00003 11.7812L4.45159 13.6468C4.3691 13.6904 4.27605 13.71 4.183 13.7033C4.08995 13.6967 4.00062 13.6641 3.92514 13.6093C3.84966 13.5545 3.79105 13.4796 3.75596 13.3932C3.72086 13.3067 3.71069 13.2122 3.72659 13.1203L4.40472 9.16871L1.5344 6.37027C1.43936 6.27762 1.38498 6.15102 1.38322 6.0183C1.38146 5.88558 1.43247 5.75759 1.52503 5.66246M14.1161 6.01274L14.1163 6.01186M14.1161 6.01274L14.1157 6.01316M14.1161 6.01274L14.116 6.01349M14.1163 6.01186L14.1157 6.01172L14.1163 6.01181L14.1163 6.01186ZM14.116 6.01349L11.7802 13.2042L11.7806 13.2041L11.7805 13.2039M14.116 6.01349L14.116 6.01362L14.1157 6.01316M14.116 6.01349L14.1157 6.01316M14.116 6.01349L11.7808 13.2041L11.7805 13.2039M1.52503 5.66246L1.8814 6.0117L1.88165 6.01195L1.88181 6.0121M1.52503 5.66246L1.88124 6.00902L1.88265 6.0104L1.8834 6.01113L1.88318 6.01168L1.88327 6.01189M1.52503 5.66246L1.88327 6.01189M1.88181 6.0121L1.88168 6.01212L1.88214 6.01242L1.88181 6.0121ZM1.88181 6.0121L1.88288 6.01195L1.88327 6.01189M1.88327 6.01189L1.88341 6.01223L1.88345 6.01226L4.75376 8.8107L4.94198 8.9942L4.89752 9.25327L4.21954 13.2039M4.21954 13.2039L4.21891 13.2043L4.21822 13.2046L4.21814 13.2047L4.21828 13.2046L4.21856 13.2046L4.21896 13.2047L4.21899 13.2048L4.21923 13.2051L4.21928 13.2055L4.21935 13.2051L4.21939 13.2048L4.21954 13.2039ZM4.21954 13.2039L7.76735 11.3386L8.00003 11.2163L8.23272 11.3386L11.7805 13.2039M11.7805 13.2039L11.1026 9.25327L11.0581 8.9942L11.2463 8.8107L14.1157 6.01316M7.99889 1.56874L8.00001 1.56646L7.5516 1.34527L7.99881 1.56888L7.99889 1.56874ZM11.7806 13.2043L11.7807 13.2048L11.7807 13.2051L11.7807 13.2052C11.7808 13.2055 11.7808 13.2056 11.7808 13.2056C11.7808 13.2056 11.7808 13.2054 11.7808 13.2052C11.7808 13.2051 11.7808 13.205 11.7809 13.2049C11.7809 13.2049 11.7809 13.2049 11.7809 13.2048C11.7809 13.2048 11.7809 13.2048 11.7809 13.2048C11.7809 13.2047 11.7809 13.2045 11.781 13.2044C11.781 13.2043 11.781 13.2042 11.781 13.2042L11.7812 13.2043L11.7819 13.2046L11.7824 13.2049L11.7832 13.2054C11.7829 13.2052 11.7826 13.2051 11.7824 13.2049C11.7821 13.2048 11.7819 13.2047 11.7817 13.2047C11.7815 13.2046 11.7813 13.2045 11.7811 13.2044C11.781 13.2044 11.7808 13.2044 11.7808 13.2043C11.7807 13.2043 11.7806 13.2043 11.7806 13.2043Z" fill="white" fill-opacity="0.46" stroke="#E31244"/>
</svg>
